<svg width="535" height="440" viewBox="0 0 535 440" fill="none" xmlns="http://www.w3.org/2000/svg">
<g clip-path="url(#clip0_3212_30)">
<path d="M279.141 244.982C279.151 240.571 282.729 237 287.141 237H527C531.418 237 535 240.582 535 245V299.99C535 304.412 531.412 307.995 526.99 307.99L287.008 307.685C282.586 307.679 279.008 304.088 279.018 299.667L279.141 244.982Z" fill="#FF5555"/>
<g filter="url(#filter0_f_3212_30)">
<path d="M299.74 275.402L335.882 238.125L351.356 253.203L310.417 295.216L299.74 275.402Z" fill="black"/>
</g>
<path d="M378.808 251.992L379.792 271.551L398.697 266.442L380.399 273.421L391.1 289.823L378.808 274.577L366.516 289.823L377.217 273.421L358.919 266.442L377.825 271.551L378.808 251.992Z" fill="black"/>
<rect x="415.406" y="236.96" width="1.30704" height="71.2338" fill="black"/>
<rect x="340.904" y="236.96" width="1.30704" height="71.2338" fill="black"/>
<path d="M260.795 237.839C259.998 235.079 260.742 232.104 262.744 230.044L471.514 15.2041C474.596 12.0324 479.667 11.9632 482.835 15.0497L522.69 53.8858C525.854 56.9693 525.92 62.0342 522.836 65.1985L291.839 302.256C287.557 306.651 280.126 304.787 278.423 298.892L260.795 237.839Z" fill="#FF5555"/>
<path d="M314.523 233.323L311.659 230.532L310.725 229.72L310.815 229.627L312.02 230.161L315.697 231.444L317.191 229.911L315.813 226.269L315.249 225.078L315.339 224.985L316.183 225.89L319.047 228.681L320.279 227.417L314.634 221.917L312.959 223.635L314.491 227.625L315.313 229.428L315.223 229.521L313.383 228.762L309.314 227.376L307.647 229.086L313.292 234.587L314.523 233.323ZM322.273 225.539C323.184 224.604 323.363 223.628 322.895 222.794L322.961 222.727L323.929 223.671L325.079 222.491L322.602 220.078C321.498 219.002 320.125 218.962 318.754 220.369C317.399 221.759 317.27 223.341 318.315 224.359L318.34 224.384L319.58 223.111L319.546 223.079C319.066 222.611 319.152 222.185 319.776 221.545C320.433 220.871 320.822 220.774 321.37 221.308L321.53 221.464L319.95 223.456C319.164 224.448 319.1 225.289 319.724 225.896C320.432 226.586 321.386 226.449 322.273 225.539ZM320.879 224.542C320.677 224.345 320.724 224.128 320.995 223.8L322.255 222.17C322.82 222.787 322.571 223.447 321.733 224.306C321.372 224.677 321.107 224.764 320.879 224.542ZM326.934 220.587L325.41 219.101L326.354 218.132L328.905 218.565L330.358 217.074L326.698 216.464L326.162 212.936L324.7 214.435L325.217 217.041L324.281 218.001L321.29 215.087L320.058 216.35L325.703 221.851L326.934 220.587ZM332.95 214.583C334.255 213.243 334.485 211.726 333.567 210.831L333.474 210.741L332.243 212.005L332.327 212.087C332.689 212.44 332.629 212.89 331.898 213.64C331.101 214.457 330.528 214.489 329.846 213.891L333.196 210.454C333.069 210.297 332.976 210.174 332.824 210.026C331.502 208.737 329.882 208.949 328.536 210.331C327.181 211.721 327.104 213.502 328.452 214.816C329.952 216.277 331.579 215.99 332.95 214.583ZM329.497 211.317C330.219 210.575 330.792 210.476 331.381 210.984L329.197 213.225C328.707 212.633 328.766 212.066 329.497 211.317ZM339.933 207.248L335.426 202.856L337.471 200.758L336.333 199.65L331.013 205.109L332.151 206.217L334.195 204.119L338.702 208.512L339.933 207.248ZM343.651 203.433L341.536 201.373C340.828 200.683 340.738 200.085 341.567 199.234C342.339 198.442 342.887 198.385 343.594 199.075L345.802 201.226L347.033 199.962L344.447 197.442C343.47 196.49 342.186 196.323 341.078 197.46C340.027 198.539 340.2 199.676 340.785 200.509L340.719 200.576L338.006 197.933L336.775 199.196L342.419 204.697L343.651 203.433ZM349.923 197.166C351.228 195.826 351.458 194.309 350.54 193.414L350.447 193.324L349.216 194.588L349.3 194.67C349.662 195.023 349.601 195.473 348.871 196.223C348.074 197.04 347.501 197.072 346.819 196.474L350.169 193.037C350.042 192.88 349.949 192.757 349.797 192.609C348.475 191.32 346.855 191.532 345.509 192.914C344.154 194.304 344.077 196.085 345.425 197.399C346.925 198.86 348.552 198.573 349.923 197.166ZM346.47 193.9C347.192 193.158 347.765 193.059 348.354 193.567L346.17 195.808C345.68 195.216 345.739 194.649 346.47 193.9ZM357.276 189.452C358.507 188.188 358.475 187.007 357.515 186.071C356.757 185.332 355.742 185.329 354.648 186.3L354.572 186.226C355.424 185.216 355.28 184.353 354.581 183.672C353.696 182.81 352.6 182.957 351.475 184.111L348.175 187.498L353.819 192.998L357.276 189.452ZM350.544 187.342L352.457 185.38C352.916 184.908 353.282 184.87 353.669 185.247C354.057 185.625 354.028 185.975 353.577 186.438L351.647 188.418L350.544 187.342ZM352.692 189.436L354.769 187.305C355.27 186.791 355.635 186.736 356.082 187.171C356.537 187.614 356.492 187.981 355.991 188.495L353.914 190.626L352.692 189.436ZM361.805 184.973C363.11 183.633 363.34 182.116 362.422 181.222L362.329 181.131L361.097 182.395L361.182 182.477C361.544 182.83 361.483 183.28 360.753 184.03C359.956 184.847 359.383 184.879 358.701 184.281L362.051 180.844C361.924 180.687 361.831 180.564 361.679 180.416C360.356 179.127 358.737 179.339 357.391 180.721C356.036 182.111 355.959 183.892 357.307 185.206C358.807 186.667 360.434 186.38 361.805 184.973ZM358.352 181.707C359.074 180.965 359.647 180.866 360.236 181.375L358.052 183.616C357.562 183.023 357.621 182.457 358.352 181.707ZM366.621 180.031C367.893 178.725 368.134 177.433 367.342 176.661C366.643 175.979 365.853 176.031 364.627 177.037L363.639 177.832C363.03 178.322 362.822 178.35 362.603 178.136C362.334 177.874 362.38 177.607 362.996 176.975C363.751 176.2 364.092 176.204 364.438 176.54L364.488 176.59L365.72 175.326L365.694 175.301C364.666 174.3 363.381 174.574 362.034 175.956C360.622 177.405 360.596 178.611 361.338 179.334C362.045 180.024 362.884 179.921 363.798 179.169L365.099 178.121C365.65 177.689 365.841 177.629 366.077 177.859C366.329 178.105 366.283 178.372 365.626 179.046C364.928 179.762 364.597 179.899 364.218 179.53L364.142 179.456L362.911 180.719L362.936 180.744C363.914 181.696 365.233 181.455 366.621 180.031ZM371.967 174.376L370.83 173.267L370.091 174.026C369.656 174.472 369.39 174.525 368.969 174.115L367.461 172.645L368.791 171.281L367.747 170.263L366.417 171.627L365.599 170.831L364.368 172.095L365.185 172.891L364.536 173.557L365.581 174.575L366.23 173.909L367.881 175.518C368.942 176.553 369.989 176.406 370.949 175.42L371.967 174.376ZM374.927 171.339L372.821 169.286L376.121 165.9L374.992 164.8L371.692 168.186L370.42 166.947L373.843 163.433L372.706 162.325L368.051 167.102L373.695 172.603L374.927 171.339ZM375.456 161.492L374.461 160.523L373.23 161.787L374.224 162.756L375.456 161.492ZM380.106 166.024L375.885 161.911L374.654 163.175L378.875 167.288L380.106 166.024ZM381.982 164.099L379.851 162.022C379.135 161.324 379.094 160.726 379.873 159.925C380.629 159.15 381.186 159.151 381.86 159.808L384.067 161.959L385.299 160.695L382.67 158.134C381.735 157.223 380.46 157.048 379.335 158.202C378.26 159.305 378.441 160.468 379.042 161.267L378.968 161.343L377.671 160.078L376.53 161.249L380.751 165.363L381.982 164.099ZM387.27 158.841C388.182 157.906 388.36 156.93 387.892 156.096L387.958 156.028L388.927 156.973L390.076 155.793L387.599 153.379C386.496 152.304 385.122 152.263 383.751 153.67C382.397 155.06 382.267 156.643 383.312 157.661L383.337 157.685L384.577 156.413L384.543 156.38C384.063 155.912 384.149 155.487 384.773 154.847C385.43 154.173 385.82 154.076 386.367 154.61L386.527 154.766L384.948 156.758C384.162 157.749 384.098 158.59 384.721 159.198C385.429 159.888 386.384 159.751 387.27 158.841ZM385.877 157.844C385.674 157.647 385.722 157.43 385.992 157.102L387.252 155.472C387.817 156.088 387.568 156.749 386.73 157.608C386.369 157.979 386.104 158.065 385.877 157.844ZM391.932 153.889L389.8 151.812C389.084 151.114 389.043 150.515 389.823 149.715C390.578 148.94 391.136 148.941 391.81 149.598L394.017 151.749L395.249 150.485L392.62 147.924C391.685 147.012 390.41 146.838 389.285 147.992C388.21 149.095 388.391 150.258 388.992 151.057L388.918 151.133L387.621 149.868L386.479 151.039L390.7 155.153L391.932 153.889ZM398.148 147.679C399.47 146.322 399.64 144.681 398.553 143.622L398.435 143.507L397.212 144.763L397.279 144.828C397.818 145.354 397.626 145.938 396.986 146.596C396.255 147.345 395.641 147.42 394.865 146.665C394.082 145.901 394.141 145.285 394.871 144.535C395.512 143.878 396.091 143.671 396.63 144.196L396.698 144.262L397.921 143.006L397.803 142.892C396.708 141.824 395.08 142.045 393.759 143.401C392.346 144.85 392.294 146.606 393.642 147.92C394.973 149.217 396.736 149.128 398.148 147.679ZM397.399 138.974L396.405 138.005L395.174 139.269L396.168 140.238L397.399 138.974ZM402.05 143.506L397.829 139.393L396.597 140.657L400.818 144.77L402.05 143.506ZM404.043 141.629C404.954 140.694 405.133 139.719 404.665 138.884L404.73 138.817L405.699 139.761L406.849 138.582L404.372 136.168C403.268 135.092 401.895 135.052 400.524 136.459C399.169 137.849 399.04 139.431 400.085 140.449L400.11 140.474L401.35 139.202L401.316 139.169C400.836 138.701 400.922 138.276 401.546 137.635C402.202 136.961 402.592 136.865 403.14 137.398L403.3 137.554L401.72 139.546C400.934 140.538 400.87 141.379 401.494 141.987C402.201 142.676 403.156 142.539 404.043 141.629ZM402.649 140.632C402.447 140.435 402.494 140.218 402.764 139.891L404.024 138.26C404.59 138.877 404.34 139.537 403.503 140.397C403.142 140.767 402.877 140.854 402.649 140.632ZM408.704 136.677L403.06 131.177L401.828 132.441L407.473 137.941L408.704 136.677ZM413.333 131.927C415.098 130.116 415.162 127.944 413.392 126.22C411.623 124.496 409.454 124.616 407.688 126.427L405.037 129.148L410.681 134.649L413.333 131.927ZM408.826 127.535C409.942 126.389 410.722 126.246 412.079 127.568C413.435 128.89 413.312 129.673 412.196 130.819L410.775 132.277L407.405 128.993L408.826 127.535ZM419.017 126.263C420.322 124.924 420.552 123.407 419.634 122.512L419.541 122.422L418.31 123.685L418.394 123.767C418.756 124.12 418.696 124.57 417.965 125.32C417.169 126.137 416.595 126.17 415.913 125.571L419.263 122.134C419.136 121.978 419.043 121.854 418.892 121.706C417.569 120.417 415.949 120.63 414.603 122.011C413.248 123.401 413.172 125.183 414.52 126.496C416.019 127.957 417.646 127.67 419.017 126.263ZM415.564 122.997C416.287 122.256 416.859 122.157 417.448 122.665L415.264 124.906C414.774 124.313 414.833 123.747 415.564 122.997ZM423.948 121.203C425.27 119.847 425.44 118.206 424.353 117.147L424.235 117.032L423.012 118.287L423.079 118.353C423.618 118.878 423.426 119.463 422.786 120.12C422.055 120.87 421.441 120.945 420.666 120.189C419.882 119.426 419.941 118.809 420.671 118.06C421.312 117.403 421.891 117.195 422.43 117.721L422.498 117.786L423.721 116.531L423.603 116.416C422.508 115.349 420.88 115.57 419.559 116.926C418.146 118.375 418.094 120.131 419.442 121.445C420.773 122.742 422.536 122.652 423.948 121.203ZM423.199 112.499L422.205 111.53L420.974 112.794L421.968 113.763L423.199 112.499ZM427.85 117.031L423.629 112.918L422.398 114.181L426.618 118.294L427.85 117.031ZM430.656 114.32C431.928 113.014 432.169 111.722 431.378 110.95C430.678 110.268 429.889 110.32 428.662 111.326L427.674 112.121C427.065 112.611 426.857 112.639 426.638 112.425C426.369 112.163 426.415 111.896 427.031 111.264C427.786 110.489 428.127 110.493 428.473 110.829L428.523 110.879L429.755 109.615L429.73 109.59C428.702 108.589 427.416 108.863 426.069 110.245C424.657 111.694 424.631 112.9 425.373 113.623C426.08 114.312 426.919 114.21 427.833 113.458L429.134 112.41C429.686 111.978 429.876 111.918 430.112 112.147C430.365 112.394 430.318 112.661 429.661 113.335C428.964 114.051 428.633 114.188 428.254 113.819L428.178 113.745L426.946 115.008L426.971 115.033C427.949 115.985 429.268 115.744 430.656 114.32ZM429.685 105.843L428.691 104.874L427.46 106.138L428.454 107.107L429.685 105.843ZM434.336 110.375L430.115 106.262L428.884 107.525L433.104 111.639L434.336 110.375ZM437.257 107.546C438.661 106.106 438.745 104.299 437.414 103.002C436.066 101.689 434.271 101.828 432.868 103.269C431.464 104.709 431.37 106.507 432.718 107.821C434.049 109.118 435.853 108.987 437.257 107.546ZM436.136 106.454C435.299 107.314 434.683 107.288 433.942 106.566C433.2 105.843 433.142 105.212 433.98 104.353C434.809 103.502 435.45 103.535 436.191 104.257C436.932 104.98 436.966 105.603 436.136 106.454ZM441.255 103.275L439.124 101.198C438.407 100.5 438.366 99.9014 439.146 99.1011C439.902 98.326 440.459 98.3271 441.133 98.9839L443.34 101.135L444.572 99.8712L441.943 97.3097C441.008 96.3984 439.733 96.2236 438.608 97.3778C437.533 98.4814 437.714 99.6437 438.315 100.443L438.241 100.519L436.944 99.2543L435.803 100.425L440.023 104.538L441.255 103.275ZM447.356 97.1826C448.629 95.8767 448.87 94.5842 448.078 93.8125C447.379 93.1311 446.589 93.1829 445.363 94.1887L444.375 94.9834C443.765 95.4737 443.558 95.5014 443.339 95.2879C443.069 95.0252 443.116 94.7584 443.731 94.1265C444.487 93.3515 444.828 93.3554 445.173 93.692L445.224 93.7412L446.455 92.4775L446.43 92.4529C445.402 91.4513 444.116 91.7258 442.77 93.1074C441.358 94.5565 441.332 95.763 442.073 96.4855C442.781 97.1751 443.62 97.0728 444.533 96.3206L445.834 95.2723C446.386 94.8409 446.576 94.7802 446.812 95.0101C447.065 95.2564 447.019 95.5232 446.362 96.1972C445.664 96.9133 445.333 97.0507 444.954 96.6812L444.878 96.6073L443.647 97.871L443.672 97.8957C444.649 98.848 445.969 98.6064 447.356 97.1826Z" fill="black"/>
<path d="M22.6392 250.595L487.348 3.50539C491.249 1.43114 496.093 2.91209 498.167 6.8132L524.192 55.7586C526.266 59.6597 524.785 64.5037 520.884 66.5779L56.1755 313.668L22.6392 250.595Z" fill="black"/>
<g clip-path="url(#clip1_3212_30)">
<path d="M310.8 135.222L309.358 135.989C308.88 136.243 308.698 136.837 308.952 137.315C309.206 137.793 309.8 137.974 310.278 137.72L310.855 137.413C311.333 137.159 311.927 137.341 312.181 137.819C312.435 138.297 312.253 138.89 311.775 139.145L310.333 139.912M309.339 135.259L309.646 135.836M311.487 139.298L311.794 139.875M314.029 135.726L314.034 135.723M307.104 139.408L307.11 139.405M303.63 138.442L305.962 142.828C306.306 143.474 306.478 143.797 306.735 143.977C306.961 144.135 307.231 144.218 307.507 144.213C307.821 144.208 308.144 144.036 308.79 143.692L316.638 139.52C317.284 139.176 317.607 139.004 317.787 138.747C317.946 138.521 318.028 138.251 318.024 137.975C318.018 137.661 317.846 137.338 317.503 136.692L315.171 132.306C314.827 131.66 314.655 131.337 314.398 131.157C314.172 130.998 313.902 130.916 313.626 130.92C313.312 130.926 312.989 131.098 312.343 131.441L304.495 135.614C303.849 135.958 303.526 136.13 303.346 136.387C303.187 136.613 303.105 136.883 303.109 137.159C303.115 137.473 303.287 137.796 303.63 138.442ZM314.317 135.573C314.402 135.732 314.341 135.93 314.182 136.015C314.023 136.099 313.825 136.039 313.74 135.879C313.655 135.72 313.716 135.522 313.875 135.438C314.035 135.353 314.232 135.413 314.317 135.573ZM307.393 139.254C307.478 139.414 307.417 139.612 307.258 139.696C307.098 139.781 306.901 139.721 306.816 139.561C306.731 139.402 306.792 139.204 306.951 139.119C307.11 139.035 307.308 139.095 307.393 139.254Z" stroke="#FF5555" stroke-width="1.30704" stroke-linecap="round" stroke-linejoin="round"/>
</g>
<circle cx="310.567" cy="137.567" r="15.3578" transform="rotate(-28 310.567 137.567)" stroke="#FF5555" stroke-width="0.653521"/>
<path d="M333.134 119.567L331.753 116.97L335.928 114.75L335.188 113.358L331.013 115.578L330.179 114.01L334.51 111.707L333.765 110.305L327.876 113.436L331.576 120.395L333.134 119.567ZM336.638 110.35L335.986 109.124L334.428 109.952L335.08 111.178L336.638 110.35ZM339.686 116.083L336.919 110.879L335.361 111.708L338.128 116.911L339.686 116.083ZM342.059 114.821L340.662 112.193C340.193 111.31 340.336 110.728 341.323 110.203C342.278 109.695 342.809 109.866 343.251 110.697L344.698 113.418L346.256 112.59L344.533 109.349C343.92 108.196 342.758 107.641 341.336 108.398C339.975 109.121 339.794 110.284 340.122 111.228L340.029 111.278L339.178 109.678L337.735 110.446L340.502 115.649L342.059 114.821ZM348.699 111.424C349.851 110.811 350.319 109.936 350.127 108.999L350.21 108.955L350.845 110.149L352.299 109.376L350.676 106.323C349.952 104.962 348.657 104.505 346.922 105.427C345.208 106.339 344.603 107.806 345.288 109.094L345.305 109.125L346.873 108.291L346.851 108.25C346.536 107.658 346.748 107.279 347.537 106.859C348.368 106.417 348.768 106.444 349.127 107.119L349.232 107.317L347.121 108.732C346.07 109.438 345.753 110.219 346.162 110.988C346.626 111.86 347.577 112.021 348.699 111.424ZM347.675 110.05C347.542 109.801 347.653 109.608 348.011 109.378L349.707 108.21C350.058 108.969 349.619 109.522 348.56 110.086C348.103 110.329 347.824 110.33 347.675 110.05ZM354.647 108.128L353.25 105.5C352.78 104.617 352.924 104.035 353.91 103.51C354.866 103.002 355.396 103.173 355.838 104.004L357.285 106.725L358.843 105.897L357.12 102.656C356.507 101.503 355.346 100.948 353.923 101.705C352.562 102.428 352.381 103.591 352.71 104.535L352.616 104.585L351.766 102.985L350.322 103.753L353.089 108.956L354.647 108.128ZM362.46 104.107C364.132 103.218 364.794 101.707 364.082 100.367L364.004 100.222L362.457 101.045L362.501 101.128C362.854 101.792 362.493 102.291 361.683 102.722C360.759 103.213 360.15 103.097 359.642 102.141C359.129 101.175 359.372 100.606 360.297 100.115C361.107 99.6838 361.722 99.6631 362.076 100.328L362.12 100.411L363.667 99.5881L363.59 99.4427C362.872 98.0924 361.255 97.8067 359.582 98.6958C357.796 99.6457 357.211 101.302 358.095 102.964C358.967 104.605 360.673 105.057 362.46 104.107ZM368.708 100.785C370.359 99.907 371.04 98.5322 370.438 97.4001L370.378 97.2859L368.82 98.1143L368.875 98.2181C369.112 98.6647 368.917 99.0748 367.993 99.5663C366.985 100.102 366.429 99.9581 365.962 99.1804L370.2 96.9272C370.127 96.7396 370.076 96.5935 369.977 96.4066C369.11 94.7759 367.502 94.4846 365.799 95.3903C364.085 96.3016 363.469 97.9746 364.353 99.6365C365.336 101.485 366.973 101.707 368.708 100.785ZM366.414 96.6221C367.328 96.1361 367.904 96.2164 368.31 96.8798L365.547 98.3488C365.261 97.6351 365.49 97.1136 366.414 96.6221Z" fill="white"/>
<path d="M341.392 135.9L339.122 131.632L338.545 130.646L338.628 130.602L339.589 131.383L343.56 134.215L344.91 133.497L344.783 128.622L344.673 127.388L344.756 127.344L345.25 128.373L347.52 132.642L348.641 132.046L344.941 125.087L343.415 125.899L343.573 130.983L343.728 132.753L343.645 132.797L342.244 131.69L338.097 128.726L336.57 129.538L340.27 136.497L341.392 135.9ZM352.376 130.193C354.1 129.276 354.673 127.573 353.828 125.984C352.972 124.374 351.245 123.907 349.521 124.823C347.807 125.735 347.229 127.428 348.085 129.038C348.93 130.627 350.662 131.104 352.376 130.193ZM351.846 129.196C350.6 129.859 349.765 129.543 349.186 128.452C348.6 127.351 348.799 126.473 350.046 125.81C351.302 125.142 352.142 125.468 352.727 126.569C353.307 127.66 353.103 128.528 351.846 129.196ZM358.508 126.933C359.962 126.16 360.614 125.08 360.1 124.114C359.647 123.263 358.866 123.145 357.557 123.641L356.274 124.11C355.44 124.421 355.155 124.386 354.94 123.98C354.68 123.492 354.902 123.108 355.847 122.605C356.99 121.998 357.473 122.154 357.798 122.767L357.832 122.829L358.943 122.238L358.926 122.207C358.275 120.982 356.982 120.856 355.404 121.696C353.814 122.54 353.336 123.621 353.817 124.524C354.275 125.386 355.088 125.487 356.131 125.093L357.643 124.528C358.435 124.24 358.756 124.243 358.983 124.669C359.226 125.126 359.035 125.493 358.028 126.029C356.947 126.604 356.426 126.601 356.067 125.926L356.023 125.843L354.901 126.439L354.918 126.47C355.553 127.665 356.846 127.816 358.508 126.933ZM365.058 123.317L364.522 122.309L363.587 122.807C362.943 123.149 362.564 123.137 362.227 122.504L360.941 120.084L362.81 119.09L362.313 118.155L360.443 119.149L359.842 118.017L358.73 118.608L359.332 119.74L358.46 120.204L358.957 121.139L359.829 120.675L361.149 123.157C361.817 124.414 362.762 124.537 363.874 123.947L365.058 123.317ZM368.656 121.404L367.541 119.306L369.826 118.091C371.373 117.268 371.958 115.811 371.14 114.274C370.317 112.726 368.789 112.407 367.241 113.23L363.834 115.041L367.534 122L368.656 121.404ZM367.673 114.292C368.722 113.735 369.472 113.842 370.019 114.87C370.565 115.899 370.235 116.581 369.186 117.138L367.005 118.298L365.492 115.452L367.673 114.292ZM376.912 117.147C378.636 116.23 379.209 114.527 378.364 112.938C377.508 111.328 375.781 110.861 374.057 111.777C372.343 112.689 371.765 114.382 372.621 115.992C373.466 117.581 375.198 118.058 376.912 117.147ZM376.382 116.15C375.136 116.813 374.301 116.497 373.722 115.406C373.136 114.305 373.335 113.427 374.582 112.764C375.838 112.096 376.678 112.422 377.263 113.523C377.843 114.614 377.639 115.482 376.382 116.15ZM382.609 116.25L380.897 113.03L380.938 113.008C381.648 113.843 382.722 114.058 383.885 113.439C385.495 112.583 385.804 111.034 384.953 109.434C384.103 107.835 382.619 107.225 381.02 108.075C379.805 108.721 379.387 109.69 379.687 110.756L379.594 110.805L378.831 109.372L377.803 109.919L381.487 116.846L382.609 116.25ZM380.344 111.992L380.295 111.898C379.704 110.787 380.06 109.904 381.213 109.291C382.294 108.717 383.169 108.784 383.831 110.031C384.489 111.267 384.071 112.035 382.96 112.626C381.859 113.211 380.908 113.051 380.344 111.992ZM389.306 110.557C390.635 109.851 390.879 108.655 390.581 107.694L390.643 107.661L391.494 109.261L392.522 108.714L389.777 103.552L388.666 104.143L390.025 106.698C390.621 107.82 390.401 108.683 389.258 109.29C388.167 109.87 387.461 109.62 386.948 108.654L385.457 105.849L384.345 106.44L385.996 109.546C386.632 110.74 387.851 111.331 389.306 110.557ZM394.663 107.576L390.963 100.617L389.841 101.213L393.541 108.172L394.663 107.576ZM397.273 106.321C398.447 105.697 398.991 104.741 398.797 103.725L398.87 103.687L399.555 104.974L400.583 104.428L398.915 101.291C398.258 100.055 397.046 99.5539 395.405 100.426C393.764 101.299 393.257 102.701 393.881 103.875L393.903 103.916L395.014 103.325L394.992 103.284C394.589 102.526 394.891 101.965 395.846 101.457C396.833 100.933 397.367 101.035 397.82 101.887L397.98 102.188L395.765 103.685C394.808 104.341 394.385 105.099 394.81 105.898C395.263 106.75 396.203 106.89 397.273 106.321ZM395.893 105.229C395.678 104.824 395.887 104.54 396.43 104.158L398.334 102.853C398.875 103.871 398.317 104.727 397.144 105.351C396.5 105.693 396.114 105.645 395.893 105.229ZM402.706 103.299L401.165 100.401C400.674 99.4767 400.778 98.7952 401.661 98.3258C402.429 97.9171 402.923 98.0942 403.315 98.8317L403.558 99.2887L404.67 98.6977L404.311 98.0226C403.792 97.0463 402.835 96.4756 401.662 97.0997C400.602 97.663 400.395 98.6259 400.681 99.5397L400.608 99.5783L399.868 98.1865L398.84 98.7333L401.585 103.895L402.706 103.299ZM409.351 99.7659L409.19 97.5334L412.867 95.5784L414.627 96.9605L415.894 96.2867L409.089 90.979L407.51 91.8185L408.104 100.429L409.351 99.7659ZM408.919 93.6671L408.8 92.465L408.883 92.4208L409.812 93.1921L411.884 94.8084L409.101 96.2885L408.919 93.6671ZM419.076 94.7283C420.623 93.9054 421.292 92.431 420.607 91.1431L420.546 91.0288L419.435 91.6197L419.473 91.6924C419.899 92.4922 419.527 93.1961 418.519 93.7318C417.356 94.3504 416.539 94.0656 415.948 92.9543C415.346 91.8221 415.572 90.9955 416.736 90.377C417.743 89.8413 418.535 89.9267 418.96 90.7265L418.993 90.7888L420.104 90.1979L420.049 90.094C419.364 88.8061 417.768 88.5356 416.221 89.3585C414.517 90.2642 413.98 91.9353 414.836 93.5452C415.681 95.1343 417.372 95.634 419.076 94.7283ZM425.192 91.4762C426.74 90.6533 427.408 89.1789 426.723 87.891L426.662 87.7767L425.551 88.3677L425.59 88.4404C426.015 89.2401 425.643 89.9441 424.636 90.4798C423.472 91.0983 422.655 90.8136 422.064 89.7022C421.462 88.5701 421.689 87.7435 422.852 87.1249C423.859 86.5893 424.651 86.6747 425.076 87.4744L425.109 87.5367L426.221 86.9458L426.165 86.842C425.481 85.554 423.885 85.2835 422.337 86.1064C420.634 87.0121 420.097 88.6832 420.953 90.2931C421.798 91.8822 423.489 92.3819 425.192 91.4762ZM431.34 88.2076C433.064 87.2908 433.637 85.5872 432.792 83.9981C431.936 82.3882 430.209 81.921 428.484 82.8378C426.771 83.749 426.192 85.4422 427.048 87.0521C427.893 88.6412 429.626 89.1188 431.34 88.2076ZM430.809 87.2105C429.563 87.8732 428.729 87.5573 428.149 86.4667C427.564 85.3657 427.763 84.4872 429.009 83.8245C430.266 83.1563 431.105 83.4825 431.691 84.5835C432.271 85.6741 432.066 86.5422 430.809 87.2105ZM437.181 85.1018C438.51 84.3949 438.754 83.1995 438.456 82.2387L438.518 82.2056L439.369 83.8051L440.397 83.2583L437.652 78.0963L436.541 78.6872L437.9 81.2423C438.496 82.364 438.276 83.2273 437.133 83.8348C436.042 84.4146 435.336 84.1639 434.823 83.198L433.332 80.3937L432.22 80.9846L433.872 84.0901C434.507 85.2846 435.726 85.875 437.181 85.1018ZM442.538 82.12L441.179 79.565C440.583 78.4432 440.783 77.591 441.915 76.989C442.985 76.4202 443.68 76.6764 444.194 77.6424L445.685 80.4467L446.807 79.8503L445.156 76.7447C444.52 75.5503 443.301 74.9599 441.867 75.722C440.559 76.4178 440.315 77.6132 440.623 78.5685L440.55 78.6072L439.7 77.0077L438.671 77.5544L441.416 82.7165L442.538 82.12ZM451.192 77.5184L450.657 76.511L449.722 77.008C449.078 77.3504 448.699 77.3388 448.362 76.7053L447.075 74.2852L448.945 73.2912L448.448 72.3564L446.578 73.3504L445.976 72.2183L444.865 72.8092L445.467 73.9414L444.594 74.4053L445.091 75.34L445.964 74.8761L447.284 77.3585C447.952 78.6153 448.897 78.7389 450.008 78.148L451.192 77.5184ZM449.951 70.7845L449.316 69.59L448.194 70.1864L448.829 71.3809L449.951 70.7845ZM453.016 76.5489L450.271 71.3869L449.149 71.9833L451.894 77.1454L453.016 76.5489ZM455.176 75.4002L453.818 72.8451C453.221 71.7234 453.421 70.8711 454.553 70.2692C455.623 69.7004 456.319 69.9566 456.832 70.9225L458.323 73.7268L459.445 73.1304L457.794 70.0249C457.159 68.8304 455.939 68.24 454.505 69.0021C453.197 69.698 452.953 70.8934 453.261 71.8487L453.188 71.8873L452.338 70.2878L451.31 70.8346L454.054 75.9966L455.176 75.4002ZM462.439 70.9387C463.613 70.3146 464.011 69.3838 463.784 68.5054L463.856 68.4667L464.53 69.7339C465.143 70.8868 464.888 71.4352 463.715 72.0592C462.614 72.6446 462.028 72.5961 461.631 71.8483L460.519 72.4392C461.182 73.6856 462.623 73.8389 464.149 73.0271C465.842 72.1269 466.531 70.8152 465.608 69.0806L463.184 64.521L462.156 65.0677L462.84 66.3556L462.778 66.3888C462.111 65.5845 461.041 65.5271 459.961 66.1015C458.392 66.9354 457.95 68.4094 458.713 69.8427C459.475 71.2761 460.902 71.756 462.439 70.9387ZM459.845 69.2408C459.281 68.1814 459.722 67.481 460.802 66.9066C461.892 66.3267 462.774 66.431 463.238 67.3034L463.315 67.4488C463.801 68.3628 463.432 69.172 462.289 69.7795C461.23 70.3428 460.408 70.3002 459.845 69.2408ZM469.469 67.8008L469.307 65.5683L472.984 63.6133L474.745 64.9953L476.012 64.3216L469.206 59.0139L467.628 59.8533L468.222 68.4635L469.469 67.8008ZM469.037 61.702L468.917 60.4999L469 60.4557L469.93 61.227L472.002 62.8433L469.218 64.3233L469.037 61.702ZM478.592 65.2147L476.88 61.9949L476.921 61.9728C477.632 62.8075 478.705 63.0227 479.869 62.4042C481.479 61.5482 481.787 59.9986 480.937 58.399C480.086 56.7995 478.603 56.1894 477.003 57.0399C475.788 57.686 475.37 58.6543 475.67 59.7203L475.577 59.77L474.815 58.3366L473.787 58.8834L477.47 65.8111L478.592 65.2147ZM476.328 60.9562L476.278 60.8628C475.687 59.7514 476.044 58.8689 477.197 58.2559C478.277 57.6816 479.152 57.7491 479.815 58.9955C480.472 60.2315 480.055 60.9997 478.943 61.5906C477.842 62.176 476.891 62.0157 476.328 60.9562ZM485.144 61.7307L483.432 58.5109L483.474 58.4888C484.184 59.3236 485.258 59.5387 486.421 58.9202C488.031 58.0642 488.339 56.5146 487.489 54.9151C486.639 53.3156 485.155 52.7054 483.556 53.5559C482.34 54.2021 481.923 55.1703 482.223 56.2363L482.129 56.286L481.367 54.8527L480.339 55.3994L484.023 62.3272L485.144 61.7307ZM482.88 57.4723L482.83 57.3788C482.239 56.2675 482.596 55.385 483.749 54.772C484.829 54.1976 485.705 54.2651 486.367 55.5115C487.024 56.7475 486.607 57.5157 485.496 58.1067C484.395 58.6921 483.443 58.5317 482.88 57.4723Z" fill="white"/>
<g clip-path="url(#clip2_3212_30)">
<path d="M76.0609 264.476C74.1488 265.493 71.7746 264.767 70.7579 262.855L69.0534 259.649C68.9265 259.41 68.863 259.291 68.8469 259.177C68.82 258.986 68.8792 258.792 69.0084 258.649C69.0855 258.563 69.2049 258.5 69.4437 258.373L74.7011 255.577C74.9399 255.45 75.0593 255.387 75.1734 255.371C75.3647 255.344 75.5581 255.403 75.7016 255.532C75.7873 255.609 75.8508 255.729 75.9777 255.967L77.6822 259.173C78.6989 261.085 77.973 263.46 76.0609 264.476ZM76.0609 264.476L76.9814 266.207M76.1482 256.288L77.5907 255.521C77.8596 255.378 77.994 255.307 78.1234 255.294C78.296 255.278 78.468 255.33 78.6018 255.44C78.7021 255.523 78.7735 255.658 78.9165 255.926L79.0699 256.215C79.3552 256.751 79.4979 257.02 79.5559 257.271C79.7135 257.954 79.495 258.668 78.9827 259.146C78.794 259.322 78.5257 259.465 77.989 259.75M69.2239 259.97L67.7813 260.737C67.5125 260.88 67.378 260.951 67.2953 261.052C67.1851 261.185 67.1325 261.357 67.1491 261.53C67.1616 261.659 67.233 261.794 67.376 262.063L67.5294 262.351C67.8147 262.888 67.9574 263.156 68.1334 263.345C68.6111 263.857 69.3258 264.076 70.0083 263.918C70.2598 263.86 70.5281 263.717 71.0647 263.432M75.5799 269.913L80.8373 267.118C80.9789 267.042 81.0327 266.867 80.9574 266.725C80.3549 265.592 78.9479 265.162 77.8148 265.764L76.1479 266.65C75.0148 267.253 74.5846 268.66 75.1871 269.793C75.2624 269.935 75.4383 269.988 75.5799 269.913Z" stroke="#FF5555" stroke-width="1.30704" stroke-linecap="round" stroke-linejoin="round"/>
</g>
<circle cx="75.1407" cy="262.745" r="15.3578" transform="rotate(-28 75.1407 262.745)" stroke="#FF5555" stroke-width="0.653521"/>
<path d="M97.427 244.894L97.2743 243.004L100.754 241.153L102.225 242.343L104.012 241.393L97.2478 236.063L95.0251 237.245L95.682 245.822L97.427 244.894ZM96.9793 239.417L96.8308 238.11L96.945 238.049L97.9452 238.903L99.4058 240.072L97.1312 241.281L96.9793 239.417ZM107.204 239.829C108.876 238.94 109.538 237.429 108.826 236.089L108.748 235.943L107.201 236.766L107.245 236.849C107.598 237.514 107.237 238.013 106.427 238.443C105.503 238.935 104.895 238.819 104.387 237.863C103.873 236.897 104.117 236.328 105.041 235.836C105.851 235.406 106.466 235.385 106.82 236.05L106.864 236.133L108.411 235.31L108.334 235.164C107.616 233.814 105.999 233.528 104.327 234.418C102.54 235.367 101.955 237.024 102.839 238.686C103.712 240.327 105.417 240.779 107.204 239.829ZM112.192 237.044L110.805 234.437C110.342 233.564 110.437 232.967 111.486 232.409C112.462 231.89 113.002 232.003 113.466 232.876L114.913 235.597L116.471 234.768L114.775 231.58C114.135 230.375 112.963 229.825 111.561 230.571C110.232 231.278 110.05 232.414 110.353 233.385L110.27 233.429L108.491 230.085L106.934 230.913L110.634 237.872L112.192 237.044ZM115.767 227.789L115.115 226.563L113.557 227.391L114.209 228.617L115.767 227.789ZM118.815 233.522L116.048 228.318L114.49 229.147L117.257 234.35L118.815 233.522ZM122.449 231.723C124.1 230.845 124.781 229.47 124.179 228.338L124.119 228.224L122.561 229.052L122.616 229.156C122.853 229.603 122.658 230.013 121.734 230.504C120.726 231.04 120.17 230.896 119.703 230.119L123.941 227.865C123.868 227.678 123.817 227.532 123.718 227.345C122.851 225.714 121.243 225.423 119.54 226.328C117.826 227.24 117.21 228.913 118.094 230.575C119.077 232.423 120.714 232.645 122.449 231.723ZM120.155 227.56C121.069 227.074 121.645 227.155 122.051 227.818L119.288 229.287C119.002 228.573 119.231 228.052 120.155 227.56ZM129.732 227.717L129.344 221.249L127.641 222.154L128.033 226.676L127.929 226.731L124.411 223.872L122.676 224.794L127.811 228.739L129.732 227.717ZM135.34 224.869C136.992 223.99 137.673 222.616 137.071 221.484L137.01 221.369L135.452 222.198L135.508 222.302C135.745 222.748 135.55 223.158 134.626 223.65C133.618 224.185 133.062 224.042 132.595 223.264L136.833 221.011C136.76 220.823 136.709 220.677 136.609 220.49C135.742 218.859 134.135 218.568 132.432 219.474C130.718 220.385 130.102 222.058 130.986 223.72C131.969 225.569 133.606 225.791 135.34 224.869ZM133.047 220.706C133.961 220.22 134.536 220.3 134.943 220.963L132.18 222.432C131.893 221.718 132.122 221.197 133.047 220.706ZM140.308 222.094L138.911 219.466C138.43 218.562 138.502 218.045 139.447 217.542C140.34 217.067 140.812 217.229 141.271 218.091L142.718 220.813L144.276 219.984L142.878 217.356C142.398 216.453 142.469 215.935 143.414 215.433C144.308 214.958 144.78 215.12 145.238 215.982L146.685 218.703L148.243 217.875L146.52 214.634C145.891 213.45 144.767 212.915 143.427 213.627C142.087 214.34 141.994 215.442 142.339 216.391L142.245 216.441C141.617 215.536 140.612 215.124 139.408 215.765C138.099 216.461 138.01 217.547 138.35 218.486L138.266 218.53L137.427 216.951L135.983 217.719L138.75 222.922L140.308 222.094ZM151.853 216.088C153.505 215.21 154.186 213.836 153.584 212.704L153.523 212.589L151.965 213.418L152.02 213.522C152.258 213.968 152.063 214.378 151.139 214.87C150.131 215.405 149.575 215.261 149.108 214.484L153.346 212.231C153.273 212.043 153.222 211.897 153.122 211.71C152.255 210.079 150.648 209.788 148.945 210.694C147.231 211.605 146.615 213.278 147.499 214.94C148.482 216.789 150.119 217.011 151.853 216.088ZM149.56 211.925C150.474 211.44 151.049 211.52 151.455 212.183L148.693 213.652C148.406 212.938 148.635 212.417 149.56 211.925ZM156.821 213.314L155.424 210.686C154.954 209.803 155.098 209.221 156.084 208.696C157.04 208.188 157.57 208.359 158.012 209.19L159.459 211.911L161.017 211.083L159.294 207.842C158.681 206.689 157.52 206.134 156.097 206.891C154.736 207.614 154.555 208.777 154.884 209.721L154.79 209.771L153.94 208.171L152.496 208.939L155.263 214.142L156.821 213.314ZM165.472 208.714L164.726 207.312L163.791 207.809C163.241 208.102 162.972 208.072 162.696 207.552L161.707 205.693L163.39 204.799L162.705 203.511L161.022 204.405L160.486 203.398L158.929 204.226L159.464 205.234L158.644 205.67L159.328 206.958L160.149 206.522L161.231 208.557C161.927 209.866 162.968 210.045 164.184 209.399L165.472 208.714ZM168.738 207.111C170.348 206.255 170.972 205.097 170.452 204.121C169.994 203.259 169.226 203.067 167.752 203.652L166.568 204.107C165.839 204.389 165.633 204.352 165.489 204.082C165.312 203.75 165.438 203.51 166.217 203.095C167.172 202.587 167.496 202.695 167.723 203.121L167.756 203.183L169.314 202.355L169.297 202.324C168.623 201.056 167.315 200.926 165.612 201.832C163.825 202.782 163.433 203.923 163.919 204.837C164.383 205.709 165.213 205.868 166.312 205.43L167.871 204.827C168.527 204.585 168.727 204.585 168.882 204.876C169.048 205.187 168.922 205.427 168.091 205.869C167.208 206.338 166.851 206.368 166.603 205.901L166.553 205.808L164.995 206.636L165.012 206.667C165.652 207.872 166.983 208.044 168.738 207.111Z" fill="white"/>
<path d="M108.832 259.555C110.266 258.792 110.679 257.64 110.044 256.446C109.558 255.532 108.634 255.197 107.378 255.692L107.339 255.619C108.332 254.931 108.464 254.075 108.027 253.255C107.442 252.154 106.316 251.966 104.987 252.673L101.092 254.744L104.792 261.703L108.832 259.555ZM102.739 255.16L105.398 253.747C106.177 253.332 106.701 253.44 107.049 254.095C107.396 254.749 107.162 255.26 106.383 255.674L103.755 257.072L102.739 255.16ZM104.247 257.996L107.051 256.505C107.872 256.069 108.453 256.159 108.839 256.886C109.242 257.645 109.003 258.172 108.172 258.613L105.368 260.104L104.247 257.996ZM114.444 256.704C115.981 255.887 116.658 254.554 116.073 253.453L116.023 253.36L114.901 253.956L114.945 254.039C115.271 254.652 115.012 255.243 113.932 255.817C112.738 256.452 111.968 256.182 111.396 255.207L115.779 252.876C115.728 252.704 115.661 252.553 115.561 252.366C114.727 250.798 113.167 250.495 111.568 251.345C109.885 252.24 109.359 253.906 110.215 255.516C111.131 257.24 112.751 257.604 114.444 256.704ZM112.017 252.239C113.118 251.654 113.911 251.818 114.419 252.774L114.43 252.795L111.075 254.578C110.646 253.621 110.874 252.847 112.017 252.239ZM120.394 253.54C121.848 252.767 122.5 251.688 121.986 250.722C121.534 249.87 120.752 249.753 119.443 250.249L118.161 250.718C117.326 251.028 117.041 250.993 116.826 250.588C116.566 250.1 116.788 249.715 117.733 249.213C118.876 248.605 119.359 248.762 119.685 249.374L119.718 249.437L120.829 248.846L120.813 248.815C120.161 247.589 118.868 247.464 117.29 248.303C115.701 249.148 115.222 250.228 115.703 251.132C116.161 251.994 116.974 252.095 118.017 251.7L119.529 251.136C120.321 250.848 120.643 250.85 120.869 251.276C121.112 251.733 120.921 252.101 119.914 252.637C118.833 253.211 118.312 253.208 117.953 252.533L117.909 252.45L116.788 253.047L116.804 253.078C117.439 254.272 118.732 254.424 120.394 253.54ZM126.944 249.925L126.408 248.917L125.473 249.414C124.829 249.756 124.45 249.745 124.113 249.111L122.827 246.691L124.696 245.697L124.199 244.762L122.33 245.757L121.728 244.624L120.616 245.215L121.218 246.347L120.346 246.811L120.843 247.746L121.715 247.282L123.035 249.765C123.703 251.021 124.648 251.145 125.76 250.554L126.944 249.925ZM130.542 248.011L129.057 245.217L133.315 242.953L132.785 241.956L128.527 244.22L127.378 242.06L131.792 239.713L131.256 238.705L125.72 241.649L129.421 248.608L130.542 248.011ZM133.847 238.86L133.212 237.665L132.09 238.262L132.725 239.456L133.847 238.86ZM136.912 244.624L134.167 239.462L133.046 240.059L135.79 245.221L136.912 244.624ZM139.073 243.476L137.714 240.92C137.118 239.799 137.317 238.947 138.449 238.345C139.519 237.776 140.215 238.032 140.729 238.998L142.22 241.802L143.341 241.206L141.69 238.1C141.055 236.906 139.835 236.315 138.402 237.078C137.093 237.773 136.849 238.969 137.158 239.924L137.085 239.963L136.234 238.363L135.206 238.91L137.951 244.072L139.073 243.476ZM145.913 239.972C147.086 239.348 147.631 238.392 147.437 237.376L147.51 237.338L148.194 238.625L149.223 238.079L147.555 234.942C146.898 233.706 145.685 233.205 144.044 234.077C142.403 234.95 141.896 236.352 142.52 237.526L142.542 237.567L143.654 236.976L143.632 236.935C143.228 236.177 143.53 235.616 144.486 235.108C145.472 234.584 146.006 234.686 146.459 235.538L146.619 235.839L144.405 237.336C143.448 237.992 143.025 238.75 143.45 239.549C143.903 240.401 144.843 240.541 145.913 239.972ZM144.533 238.88C144.317 238.475 144.526 238.191 145.069 237.809L146.973 236.504C147.514 237.522 146.957 238.378 145.783 239.002C145.139 239.344 144.754 239.296 144.533 238.88ZM151.346 236.95L149.987 234.395C149.391 233.273 149.59 232.421 150.722 231.819C151.792 231.25 152.488 231.506 153.002 232.472L154.493 235.277L155.614 234.68L153.963 231.575C153.328 230.38 152.108 229.79 150.675 230.552C149.366 231.248 149.123 232.443 149.431 233.398L149.358 233.437L148.507 231.838L147.479 232.384L150.224 237.546L151.346 236.95ZM159.276 232.866C160.824 232.043 161.492 230.569 160.807 229.281L160.746 229.167L159.635 229.758L159.674 229.83C160.099 230.63 159.727 231.334 158.72 231.87C157.556 232.488 156.739 232.204 156.148 231.092C155.546 229.96 155.773 229.134 156.936 228.515C157.943 227.979 158.735 228.065 159.16 228.865L159.193 228.927L160.305 228.336L160.249 228.232C159.565 226.944 157.969 226.674 156.421 227.497C154.718 228.402 154.181 230.073 155.037 231.683C155.882 233.272 157.573 233.772 159.276 232.866ZM165.382 229.62C166.919 228.802 167.596 227.47 167.011 226.369L166.961 226.275L165.84 226.872L165.884 226.955C166.21 227.568 165.951 228.158 164.87 228.733C163.676 229.368 162.906 229.098 162.335 228.123L166.718 225.792C166.666 225.62 166.599 225.469 166.5 225.282C165.666 223.714 164.106 223.411 162.506 224.261C160.824 225.156 160.297 226.821 161.153 228.431C162.07 230.155 163.689 230.52 165.382 229.62ZM162.955 225.155C164.056 224.57 164.849 224.734 165.357 225.689L165.368 225.71L162.014 227.494C161.584 226.536 161.812 225.762 162.955 225.155ZM171.338 226.32L171.177 224.087L174.854 222.132L176.615 223.514L177.882 222.84L171.076 217.533L169.497 218.372L170.092 226.982L171.338 226.32ZM170.907 220.221L170.787 219.019L170.87 218.974L171.8 219.746L173.872 221.362L171.088 222.842L170.907 220.221ZM180.462 223.733L178.75 220.514L178.791 220.492C179.502 221.326 180.575 221.541 181.739 220.923C183.348 220.067 183.657 218.517 182.806 216.918C181.956 215.318 180.473 214.708 178.873 215.559C177.658 216.205 177.24 217.173 177.54 218.239L177.447 218.289L176.685 216.855L175.657 217.402L179.34 224.33L180.462 223.733ZM178.198 219.475L178.148 219.381C177.557 218.27 177.914 217.388 179.067 216.775C180.147 216.2 181.022 216.268 181.685 217.514C182.342 218.75 181.924 219.518 180.813 220.109C179.712 220.695 178.761 220.534 178.198 219.475ZM187.014 220.249L185.302 217.03L185.344 217.008C186.054 217.842 187.128 218.057 188.291 217.439C189.901 216.583 190.209 215.033 189.359 213.434C188.508 211.834 187.025 211.224 185.425 212.075C184.21 212.721 183.792 213.689 184.093 214.755L183.999 214.805L183.237 213.371L182.209 213.918L185.892 220.846L187.014 220.249ZM184.75 215.991L184.7 215.898C184.109 214.786 184.466 213.904 185.619 213.291C186.699 212.716 187.574 212.784 188.237 214.03C188.894 215.266 188.477 216.034 187.365 216.625C186.264 217.211 185.313 217.05 184.75 215.991ZM196.753 212.939C198.955 211.769 199.638 209.594 198.483 207.423C197.329 205.252 195.145 204.602 192.943 205.773C190.762 206.932 190.069 209.113 191.223 211.283C192.377 213.454 194.572 214.099 196.753 212.939ZM196.179 211.859C194.528 212.737 193.33 212.388 192.407 210.654C191.485 208.919 191.86 207.721 193.512 206.843C195.163 205.964 196.377 206.318 197.299 208.053C198.222 209.787 197.83 210.981 196.179 211.859ZM202.284 209.866L200.925 207.31C200.329 206.189 200.529 205.336 201.661 204.735C202.73 204.166 203.426 204.422 203.94 205.388L205.431 208.192L206.553 207.596L204.901 204.49C204.266 203.296 203.046 202.705 201.613 203.467C200.304 204.163 200.061 205.359 200.369 206.314L200.296 206.353L199.446 204.753L198.417 205.3L201.162 210.462L202.284 209.866ZM210.449 205.524L209.333 203.426L211.618 202.211C213.166 201.388 213.751 199.932 212.933 198.394C212.11 196.847 210.581 196.527 209.034 197.35L205.627 199.162L209.327 206.12L210.449 205.524ZM209.466 198.413C210.515 197.855 211.265 197.963 211.811 198.991C212.358 200.019 212.028 200.701 210.979 201.259L208.798 202.418L207.285 199.573L209.466 198.413ZM217.133 201.97L213.433 195.011L212.311 195.607L216.012 202.566L217.133 201.97ZM219.744 200.715C220.917 200.091 221.462 199.136 221.268 198.12L221.341 198.081L222.025 199.369L223.054 198.822L221.386 195.685C220.729 194.449 219.516 193.948 217.875 194.821C216.234 195.693 215.727 197.095 216.351 198.269L216.373 198.311L217.485 197.72L217.463 197.678C217.059 196.92 217.361 196.36 218.317 195.852C219.303 195.327 219.838 195.429 220.29 196.281L220.451 196.582L218.236 198.08C217.279 198.735 216.856 199.493 217.281 200.293C217.734 201.144 218.674 201.284 219.744 200.715ZM218.364 199.624C218.148 199.219 218.357 198.934 218.9 198.552L220.804 197.247C221.345 198.265 220.788 199.121 219.614 199.745C218.97 200.087 218.585 200.039 218.364 199.624ZM225.825 199.614C226.884 199.05 227.317 198.461 227.251 197.31L226.898 190.156L225.662 190.814L225.899 194.191L226.074 195.697L225.991 195.742L224.825 194.776L222.048 192.735L220.791 193.404L226.08 197.213L226.099 197.549C226.131 197.985 226.011 198.209 225.554 198.452L224.546 198.988L225.087 200.006L225.825 199.614ZM232.688 193.833C234.142 193.06 234.793 191.98 234.28 191.014C233.827 190.163 233.045 190.045 231.737 190.541L230.454 191.01C229.62 191.321 229.335 191.286 229.119 190.881C228.86 190.392 229.082 190.008 230.027 189.505C231.169 188.898 231.652 189.054 231.978 189.667L232.011 189.729L233.122 189.138L233.106 189.107C232.454 187.882 231.162 187.756 229.583 188.596C227.994 189.441 227.516 190.521 227.996 191.424C228.455 192.286 229.268 192.387 230.31 191.993L231.822 191.429C232.615 191.14 232.936 191.143 233.162 191.569C233.405 192.026 233.215 192.394 232.207 192.929C231.127 193.504 230.606 193.501 230.247 192.826L230.203 192.743L229.081 193.339L229.097 193.37C229.733 194.565 231.026 194.716 232.688 193.833ZM239.237 190.217L238.702 189.21L237.767 189.707C237.123 190.049 236.744 190.037 236.407 189.404L235.12 186.984L236.99 185.99L236.493 185.055L234.623 186.049L234.021 184.917L232.91 185.508L233.512 186.64L232.639 187.104L233.136 188.039L234.009 187.575L235.329 190.057C235.997 191.314 236.942 191.438 238.053 190.847L239.237 190.217ZM242.632 188.545C244.356 187.628 244.929 185.925 244.085 184.336C243.229 182.726 241.501 182.259 239.777 183.175C238.063 184.087 237.485 185.78 238.341 187.39C239.186 188.979 240.919 189.456 242.632 188.545ZM242.102 187.548C240.856 188.211 240.022 187.895 239.442 186.804C238.856 185.703 239.055 184.825 240.302 184.162C241.559 183.494 242.398 183.82 242.984 184.921C243.563 186.012 243.359 186.88 242.102 187.548ZM247.39 185.882L245.849 182.984C245.358 182.06 245.462 181.379 246.344 180.909C247.113 180.5 247.607 180.678 247.999 181.415L248.242 181.872L249.353 181.281L248.994 180.606C248.475 179.63 247.519 179.059 246.345 179.683C245.286 180.246 245.078 181.209 245.364 182.123L245.292 182.162L244.552 180.77L243.523 181.317L246.268 186.479L247.39 185.882ZM254.184 182.403C255.721 181.586 256.398 180.253 255.813 179.152L255.763 179.059L254.642 179.655L254.686 179.738C255.012 180.351 254.753 180.941 253.673 181.516C252.478 182.151 251.708 181.881 251.137 180.906L255.52 178.575C255.468 178.403 255.401 178.252 255.302 178.065C254.468 176.497 252.908 176.194 251.308 177.044C249.626 177.939 249.099 179.604 249.955 181.214C250.872 182.938 252.491 183.303 254.184 182.403ZM251.757 177.938C252.858 177.353 253.651 177.517 254.159 178.472L254.17 178.493L250.816 180.277C250.386 179.319 250.614 178.545 251.757 177.938Z" fill="white"/>
<line x1="274.912" y1="136.726" x2="273.498" y2="177.219" stroke="white" stroke-width="0.653522"/>
<path d="M436.679 266.416C439.255 266.416 440.549 265.122 440.549 263.005V258.417H438.784V262.875C438.784 264.216 438.29 264.699 436.679 264.699C435.079 264.699 434.573 264.216 434.573 262.875V258.417H432.809V263.005C432.809 265.122 434.114 266.416 436.679 266.416ZM443.202 259.805V258.417H441.437V259.805H443.202ZM443.202 266.299V260.405H441.437V266.299H443.202ZM446.36 266.299V261.864H448.184V260.405H446.29C446.243 259.829 446.608 259.699 447.384 259.699H448.184V258.417H447.666C445.855 258.417 444.819 259.217 444.631 260.405H443.761V261.864H444.596V266.299H446.36ZM450.531 266.299V262.887C450.531 262.146 450.813 261.781 451.601 261.781C452.319 261.781 452.578 262.064 452.578 262.711V263.322H454.342V262.346C454.342 261.193 453.801 260.287 452.484 260.287C451.296 260.287 450.672 261.017 450.507 261.97H450.402V260.405H448.766V266.299H450.531ZM456.111 268.298C457.593 268.298 458.381 267.957 458.946 266.722L461.863 260.405H459.898L458.781 263.087L458.31 264.487H458.193L457.699 263.099L456.452 260.405H454.452L457.334 266.322C457.216 266.581 457.028 266.699 456.593 266.699H455.146V268.298H456.111ZM465.867 266.299V264.122H468.22C470.043 264.122 471.219 263.075 471.219 261.264C471.219 259.452 470.043 258.417 468.22 258.417H464.103V266.299H465.867ZM468.031 260.005C469.008 260.005 469.467 260.299 469.467 261.264C469.467 262.252 469.008 262.534 468.031 262.534H465.867V260.005H468.031ZM473.61 266.299V262.887C473.61 262.146 473.892 261.781 474.68 261.781C475.398 261.781 475.657 262.064 475.657 262.711V263.322H477.421V262.346C477.421 261.193 476.88 260.287 475.562 260.287C474.374 260.287 473.751 261.017 473.586 261.97H473.48V260.405H471.845V266.299H473.61ZM481.189 266.416C483.059 266.416 484.306 265.522 484.306 264.24V264.111H482.542V264.228C482.542 264.734 482.177 265.005 481.13 265.005C479.989 265.005 479.566 264.616 479.519 263.711H484.318C484.342 263.511 484.365 263.358 484.365 263.146C484.365 261.299 483.083 260.287 481.154 260.287C479.213 260.287 477.884 261.476 477.884 263.358C477.884 265.452 479.225 266.416 481.189 266.416ZM481.119 261.664C482.154 261.664 482.624 262.005 482.671 262.781H479.542C479.625 262.017 480.072 261.664 481.119 261.664ZM486.878 266.299V263.322C486.878 262.299 487.184 261.876 488.254 261.876C489.266 261.876 489.607 262.24 489.607 263.217V266.299H491.372V263.322C491.372 262.299 491.677 261.876 492.748 261.876C493.76 261.876 494.101 262.24 494.101 263.217V266.299H495.865V262.628C495.865 261.287 495.124 260.287 493.607 260.287C492.089 260.287 491.489 261.217 491.348 262.217H491.242C491.113 261.123 490.419 260.287 489.054 260.287C487.572 260.287 486.984 261.205 486.843 262.193H486.749V260.405H485.113V266.299H486.878ZM498.526 259.805V258.417H496.762V259.805H498.526ZM498.526 266.299V260.405H496.762V266.299H498.526ZM501.885 266.416C503.438 266.416 504.155 265.487 504.308 264.499H504.402V266.299H506.049V260.405H504.285V263.393C504.285 264.393 503.873 264.84 502.72 264.84C501.603 264.84 501.203 264.44 501.203 263.487V260.405H499.438V264.075C499.438 265.393 500.226 266.416 501.885 266.416ZM508.716 266.299V263.322C508.716 262.299 509.022 261.876 510.092 261.876C511.104 261.876 511.445 262.24 511.445 263.217V266.299H513.21V263.322C513.21 262.299 513.516 261.876 514.586 261.876C515.598 261.876 515.939 262.24 515.939 263.217V266.299H517.703V262.628C517.703 261.287 516.962 260.287 515.445 260.287C513.927 260.287 513.327 261.217 513.186 262.217H513.08C512.951 261.123 512.257 260.287 510.892 260.287C509.41 260.287 508.822 261.205 508.681 262.193H508.587V260.405H506.952V266.299H508.716Z" fill="black"/>
<path d="M434.049 284.904V282.091H438.336V281.088H434.049V278.913H438.493V277.898H432.92V284.904H434.049ZM440.462 284.904V281.987C440.462 281.056 440.828 280.565 441.717 280.565C442.49 280.565 442.804 280.91 442.804 281.652V282.112H443.923V281.433C443.923 280.45 443.411 279.603 442.229 279.603C441.163 279.603 440.598 280.272 440.441 281.109H440.368V279.707H439.333V284.904H440.462ZM447.246 285.009C448.794 285.009 449.881 284.245 449.881 283.137V283.043H448.752V283.127C448.752 283.744 448.303 284.099 447.215 284.099C446.013 284.099 445.521 283.566 445.479 282.562H449.892C449.923 282.405 449.934 282.259 449.934 282.071C449.934 280.492 448.836 279.603 447.226 279.603C445.532 279.603 444.423 280.69 444.423 282.311C444.423 284.047 445.542 285.009 447.246 285.009ZM447.205 280.492C448.313 280.492 448.867 280.952 448.867 281.914V281.935H445.49C445.552 281.004 446.054 280.492 447.205 280.492ZM453.394 285.009C454.941 285.009 456.029 284.245 456.029 283.137V283.043H454.899V283.127C454.899 283.744 454.45 284.099 453.362 284.099C452.16 284.099 451.668 283.566 451.626 282.562H456.039C456.07 282.405 456.081 282.259 456.081 282.071C456.081 280.492 454.983 279.603 453.373 279.603C451.679 279.603 450.57 280.69 450.57 282.311C450.57 284.047 451.689 285.009 453.394 285.009ZM453.352 280.492C454.46 280.492 455.014 280.952 455.014 281.914V281.935H451.637C451.7 281.004 452.202 280.492 453.352 280.492ZM462.196 284.904V278.913H464.946V277.898H458.316V278.913H461.077V284.904H462.196ZM466.736 284.904V281.987C466.736 281.056 467.102 280.565 467.99 280.565C468.764 280.565 469.078 280.91 469.078 281.652V282.112H470.197V281.433C470.197 280.45 469.684 279.603 468.503 279.603C467.436 279.603 466.872 280.272 466.715 281.109H466.641V279.707H465.606V284.904H466.736ZM472.035 279.101V277.898H470.906V279.101H472.035ZM472.035 284.904V279.707H470.906V284.904H472.035ZM474.608 285.009C475.789 285.009 476.615 284.486 476.887 283.608H476.96V284.904H477.995V281.746C477.995 280.502 477.253 279.603 475.601 279.603C473.949 279.603 472.966 280.492 472.966 281.673V281.715H474.085V281.673C474.085 280.91 474.555 280.596 475.517 280.596C476.511 280.596 476.887 280.899 476.887 281.757V282.06L474.524 282.311C473.499 282.426 472.851 282.844 472.851 283.649C472.851 284.507 473.531 285.009 474.608 285.009ZM473.98 283.576C473.98 283.168 474.263 283.032 474.848 282.959L476.887 282.729C476.887 283.754 476.092 284.193 474.911 284.193C474.263 284.193 473.98 283.994 473.98 283.576ZM480.133 284.904V277.898H479.003V284.904H480.133Z" fill="black"/>
<path d="M25.7244 329.79L24.4157 315.545L54.2862 299.663L65.2698 308.763L85.5592 297.975L24.856 249.525L-0.411796 262.96L5.90471 340.328L25.7244 329.79ZM21.6128 285.347L20.0082 272.585L21.2293 271.936L31.0061 280.353L39.3642 287.234L22.6443 296.125L21.6128 285.347Z" fill="black"/>
<path d="M156.912 61.9706L141.838 78.6408L161.325 89.8369L140.813 80.6519L136.187 102.646L138.584 80.2988L116.237 82.6956L138.23 78.0695L129.045 57.557L140.242 77.0448L156.912 61.9706Z" fill="black"/>
</g>
<defs>
<filter id="filter0_f_3212_30" x="169.036" y="107.421" width="313.025" height="318.499" filterUnits="userSpaceOnUse" color-interpolation-filters="sRGB">
<feFlood flood-opacity="0" result="BackgroundImageFix"/>
<feBlend mode="normal" in="SourceGraphic" in2="BackgroundImageFix" result="shape"/>
<feGaussianBlur stdDeviation="65.3521" result="effect1_foregroundBlur_3212_30"/>
</filter>
<clipPath id="clip0_3212_30">
<rect width="535" height="440" fill="white"/>
</clipPath>
<clipPath id="clip1_3212_30">
<rect width="15.6845" height="15.6845" fill="white" transform="translate(299.96 134.324) rotate(-28)"/>
</clipPath>
<clipPath id="clip2_3212_30">
<rect width="15.6845" height="15.6845" fill="white" transform="translate(64.5345 259.503) rotate(-28)"/>
</clipPath>
</defs>
</svg>
